<mxfile host="Electron" modified="2023-07-30T13:47:35.482Z" agent="Mozilla/5.0 (Windows NT 10.0; Win64; x64) AppleWebKit/537.36 (KHTML, like Gecko) draw.io/21.6.5 Chrome/114.0.5735.243 Electron/25.3.1 Safari/537.36" etag="uiO1SkcCV0JnRZq_0yUF" version="21.6.5" type="device">
  <diagram name="Page-1" id="43vZWLD8GYsiUsMGI6Fa">
    <mxGraphModel dx="864" dy="495" grid="1" gridSize="10" guides="1" tooltips="1" connect="1" arrows="1" fold="1" page="1" pageScale="1" pageWidth="827" pageHeight="1169" math="0" shadow="0">
      <root>
        <mxCell id="0" />
        <mxCell id="1" parent="0" />
        <mxCell id="mGBL74VNcMKTlVGMOwoP-4" style="rounded=0;orthogonalLoop=1;jettySize=auto;html=1;entryX=0;entryY=0.5;entryDx=0;entryDy=0;dashed=1;exitX=0;exitY=0;exitDx=130;exitDy=50;exitPerimeter=0;" edge="1" parent="1" source="mGBL74VNcMKTlVGMOwoP-1" target="mGBL74VNcMKTlVGMOwoP-3">
          <mxGeometry relative="1" as="geometry">
            <mxPoint x="200" y="100" as="sourcePoint" />
          </mxGeometry>
        </mxCell>
        <mxCell id="mGBL74VNcMKTlVGMOwoP-1" value="This class is added by Alan Wright after meeting with the mission planning team." style="shape=note2;boundedLbl=1;whiteSpace=wrap;size=10;verticalAlign=top;align=left;html=1;" vertex="1" parent="1">
          <mxGeometry width="130" height="90" as="geometry" />
        </mxCell>
        <mxCell id="mGBL74VNcMKTlVGMOwoP-2" style="edgeStyle=orthogonalEdgeStyle;rounded=0;orthogonalLoop=1;jettySize=auto;html=1;exitX=0.5;exitY=1;exitDx=0;exitDy=0;exitPerimeter=0;" edge="1" parent="1" source="mGBL74VNcMKTlVGMOwoP-1" target="mGBL74VNcMKTlVGMOwoP-1">
          <mxGeometry relative="1" as="geometry" />
        </mxCell>
        <mxCell id="mGBL74VNcMKTlVGMOwoP-3" value="Account" style="fontStyle=0;html=1;whiteSpace=wrap;" vertex="1" parent="1">
          <mxGeometry x="200" y="50" width="120" height="40" as="geometry" />
        </mxCell>
      </root>
    </mxGraphModel>
  </diagram>
</mxfile>
